<svg width="33" height="34" viewBox="0 0 33 34" fill="none" xmlns="http://www.w3.org/2000/svg">
<path d="M8 1.01562H25C28.8666 1.01562 32 4.14802 32 8.01074V26C31.9999 29.8627 28.8665 32.9951 25 32.9951H8C4.13348 32.9951 1.00008 29.8627 1 26V8.01074C1.00001 4.14802 4.13344 1.01562 8 1.01562Z" stroke="#1C6BE8" stroke-width="2"/>
<path d="M17.3203 25.9263C20.5679 25.9263 23.2 28.5569 23.2002 31.8013V33.3726C23.2002 33.4372 23.1476 33.4897 23.082 33.4897H8.47754C4.23693 33.4895 0.784867 30.1278 0.639648 25.9263H17.3203Z" stroke="#1C6BE8"/>
<path d="M15.8086 8.06396C12.561 8.06396 9.92891 5.43334 9.92871 2.18896V0.617676C9.92871 0.553048 9.98133 0.500488 10.0469 0.500488H24.6514C28.892 0.500737 32.344 3.86246 32.4893 8.06396H15.8086Z" stroke="#1C6BE8"/>
<rect x="19.5" y="13.5" width="8" height="8" rx="4" stroke="#1C6BE8"/>
<rect x="22" y="15" width="4" height="4" rx="2" fill="#1C6BE8"/>
</svg>
