<svg width="1000" height="1024" viewBox="0 0 1000 1024" fill="none" xmlns="http://www.w3.org/2000/svg">
<path d="M242.271 18.5216H757.099C879.316 18.5216 978.371 117.535 978.371 239.647V784.427C978.371 906.539 879.316 1005.55 757.099 1005.55H242.271C120.055 1005.55 21 906.539 21 784.427V239.647C21 117.535 120.055 18.5217 242.271 18.5216Z" stroke="#D6E2F6" stroke-width="42"/>
<path d="M524.53 782.918C622.409 782.918 701.737 862.206 701.737 959.989V1007.56C701.737 1009.05 700.531 1010.27 699.019 1010.27H256.75C129.082 1010.27 25.0355 909.287 20.1997 782.918H524.53Z" stroke="#D6E2F6" stroke-width="32"/>
<path d="M478.745 240.351C380.866 240.351 301.538 161.063 301.538 63.2799V15.7057C301.538 14.2232 302.744 13.0016 304.256 13.0016H746.525C874.193 13.0016 978.239 113.982 983.075 240.351H478.745Z" stroke="#D6E2F6" stroke-width="32"/>
</svg>
