<svg width="16" height="16" viewBox="0 0 16 16" fill="none" xmlns="http://www.w3.org/2000/svg">
<g clip-path="url(#clip0_905_3004)">
<path d="M11.0273 0.6625L9.62418 2.06562L13.9336 6.375L15.3367 4.97188C15.7617 4.55 15.9992 3.975 15.9992 3.375C15.9992 2.775 15.7617 2.2 15.3367 1.77813L14.2211 0.6625C13.7992 0.2375 13.2242 0 12.6242 0C12.0242 0 11.4492 0.2375 11.0273 0.6625ZM8.56481 3.125L1.83981 9.84688C1.50543 10.1813 1.26168 10.6 1.13356 11.0562L0.0273051 15.05C-0.0445699 15.3094 0.0273051 15.5906 0.221055 15.7812C0.414805 15.9719 0.69293 16.0469 0.952305 15.975L4.94605 14.8656C5.40231 14.7375 5.81793 14.4969 6.15543 14.1594L12.8742 7.43437L8.56481 3.125Z" fill="#1C6BE8"/>
</g>
<defs>
<clipPath id="clip0_905_3004">
<rect width="16" height="16" fill="white"/>
</clipPath>
</defs>
</svg>
