<svg width="20" height="20" viewBox="0 0 20 20" fill="none" xmlns="http://www.w3.org/2000/svg">
<path d="M7.25817 6.42495L9.1665 4.50829V12.5C9.1665 12.721 9.2543 12.9329 9.41058 13.0892C9.56686 13.2455 9.77882 13.3333 9.99984 13.3333C10.2209 13.3333 10.4328 13.2455 10.5891 13.0892C10.7454 12.9329 10.8332 12.721 10.8332 12.5V4.50829L12.7415 6.42495C12.819 6.50306 12.9111 6.56506 13.0127 6.60736C13.1142 6.64967 13.2232 6.67145 13.3332 6.67145C13.4432 6.67145 13.5521 6.64967 13.6537 6.60736C13.7552 6.56506 13.8474 6.50306 13.9248 6.42495C14.0029 6.34749 14.0649 6.25532 14.1072 6.15377C14.1496 6.05222 14.1713 5.9433 14.1713 5.83329C14.1713 5.72328 14.1496 5.61436 14.1072 5.51281C14.0649 5.41126 14.0029 5.31909 13.9248 5.24162L10.5915 1.90829C10.5123 1.83242 10.4188 1.77295 10.3165 1.73329C10.1136 1.64994 9.88605 1.64994 9.68317 1.73329C9.58088 1.77295 9.48742 1.83242 9.40817 1.90829L6.07484 5.24162C5.99714 5.31932 5.9355 5.41156 5.89345 5.51308C5.8514 5.6146 5.82976 5.7234 5.82976 5.83329C5.82976 5.94317 5.8514 6.05198 5.89345 6.1535C5.9355 6.25501 5.99714 6.34726 6.07484 6.42495C6.15254 6.50265 6.24478 6.56429 6.3463 6.60634C6.44781 6.64839 6.55662 6.67003 6.6665 6.67003C6.77639 6.67003 6.88519 6.64839 6.98671 6.60634C7.08823 6.56429 7.18047 6.50265 7.25817 6.42495ZM17.4998 11.6666C17.2788 11.6666 17.0669 11.7544 16.9106 11.9107C16.7543 12.067 16.6665 12.2789 16.6665 12.5V15.8333C16.6665 16.0543 16.5787 16.2663 16.4224 16.4225C16.2661 16.5788 16.0542 16.6666 15.8332 16.6666H4.1665C3.94549 16.6666 3.73353 16.5788 3.57725 16.4225C3.42097 16.2663 3.33317 16.0543 3.33317 15.8333V12.5C3.33317 12.2789 3.24537 12.067 3.08909 11.9107C2.93281 11.7544 2.72085 11.6666 2.49984 11.6666C2.27882 11.6666 2.06686 11.7544 1.91058 11.9107C1.7543 12.067 1.6665 12.2789 1.6665 12.5V15.8333C1.6665 16.4963 1.9299 17.1322 2.39874 17.6011C2.86758 18.0699 3.50346 18.3333 4.1665 18.3333H15.8332C16.4962 18.3333 17.1321 18.0699 17.6009 17.6011C18.0698 17.1322 18.3332 16.4963 18.3332 15.8333V12.5C18.3332 12.2789 18.2454 12.067 18.0891 11.9107C17.9328 11.7544 17.7208 11.6666 17.4998 11.6666Z" fill="white"/>
</svg>
