<svg width="36" height="36" viewBox="0 0 36 36" fill="none" xmlns="http://www.w3.org/2000/svg">
<path d="M36 18C36 27.9411 27.9411 36 18 36C8.05887 36 0 27.9411 0 18C0 8.05887 8.05887 0 18 0C27.9411 0 36 8.05887 36 18Z" fill="#E6F3E9"/>
<path d="M10.125 14.3438C10.125 15.7417 8.99172 16.875 7.59375 16.875C6.19578 16.875 5.0625 15.7417 5.0625 14.3438C5.0625 12.9458 6.19578 11.8125 7.59375 11.8125C8.99172 11.8125 10.125 12.9458 10.125 14.3438Z" fill="#6DB49B"/>
<path d="M30.9375 14.3438C30.9375 15.7417 29.8042 16.875 28.4062 16.875C27.0083 16.875 25.875 15.7417 25.875 14.3438C25.875 12.9458 27.0083 11.8125 28.4062 11.8125C29.8042 11.8125 30.9375 12.9458 30.9375 14.3438Z" fill="#6DB49B"/>
<path d="M25.3125 18.2812C25.6232 18.2812 25.877 18.5334 25.8563 18.8433C25.7977 19.7221 25.6019 20.5864 25.2756 21.4025C24.8798 22.3921 24.2997 23.2912 23.5685 24.0486C22.8372 24.806 21.9691 25.4068 21.0136 25.8166C20.0582 26.2265 19.0342 26.4375 18 26.4375C16.9658 26.4375 15.9418 26.2265 14.9864 25.8166C14.0309 25.4068 13.1628 24.806 12.4315 24.0486C11.7003 23.2912 11.1202 22.3921 10.7244 21.4025C10.3981 20.5864 10.2023 19.7221 10.1437 18.8433C10.123 18.5334 10.3768 18.2812 10.6875 18.2812H25.3125Z" fill="#6DB49B"/>
</svg>
