<svg width="20" height="20" viewBox="0 0 20 20" fill="none" xmlns="http://www.w3.org/2000/svg">
<path d="M17.4998 11.6667C17.2788 11.6667 17.0669 11.7545 16.9106 11.9108C16.7543 12.067 16.6665 12.279 16.6665 12.5V15.8334C16.6665 16.0544 16.5787 16.2663 16.4224 16.4226C16.2661 16.5789 16.0542 16.6667 15.8332 16.6667H4.1665C3.94549 16.6667 3.73353 16.5789 3.57725 16.4226C3.42097 16.2663 3.33317 16.0544 3.33317 15.8334V12.5C3.33317 12.279 3.24537 12.067 3.08909 11.9108C2.93281 11.7545 2.72085 11.6667 2.49984 11.6667C2.27882 11.6667 2.06686 11.7545 1.91058 11.9108C1.7543 12.067 1.6665 12.279 1.6665 12.5V15.8334C1.6665 16.4964 1.9299 17.1323 2.39874 17.6011C2.86758 18.07 3.50346 18.3334 4.1665 18.3334H15.8332C16.4962 18.3334 17.1321 18.07 17.6009 17.6011C18.0698 17.1323 18.3332 16.4964 18.3332 15.8334V12.5C18.3332 12.279 18.2454 12.067 18.0891 11.9108C17.9328 11.7545 17.7208 11.6667 17.4998 11.6667ZM9.40817 13.0917C9.48742 13.1676 9.58088 13.227 9.68317 13.2667C9.78292 13.3108 9.89078 13.3335 9.99984 13.3335C10.1089 13.3335 10.2168 13.3108 10.3165 13.2667C10.4188 13.227 10.5123 13.1676 10.5915 13.0917L13.9248 9.75835C14.0818 9.60143 14.1699 9.3886 14.1699 9.16669C14.1699 8.94477 14.0818 8.73194 13.9248 8.57502C13.7679 8.4181 13.5551 8.32994 13.3332 8.32994C13.1113 8.32994 12.8984 8.4181 12.7415 8.57502L10.8332 10.4917V2.50002C10.8332 2.27901 10.7454 2.06704 10.5891 1.91076C10.4328 1.75448 10.2209 1.66669 9.99984 1.66669C9.77882 1.66669 9.56686 1.75448 9.41058 1.91076C9.2543 2.06704 9.1665 2.27901 9.1665 2.50002V10.4917L7.25817 8.57502C7.18047 8.49732 7.08823 8.43569 6.98671 8.39364C6.88519 8.35159 6.77639 8.32994 6.6665 8.32994C6.55662 8.32994 6.44781 8.35159 6.3463 8.39364C6.24478 8.43569 6.15254 8.49732 6.07484 8.57502C5.99714 8.65272 5.9355 8.74496 5.89345 8.84648C5.8514 8.948 5.82976 9.0568 5.82976 9.16669C5.82976 9.27657 5.8514 9.38538 5.89345 9.4869C5.9355 9.58841 5.99714 9.68065 6.07484 9.75835L9.40817 13.0917Z" fill="white"/>
</svg>
