<svg width="127" height="34" viewBox="0 0 127 34" fill="none" xmlns="http://www.w3.org/2000/svg">
<path d="M112.501 31.0286V18.1766H115.975V22.7126H117.127C118.231 22.7126 119.137 22.8806 119.845 23.2166C120.553 23.5526 121.081 24.0206 121.429 24.6206C121.777 25.2086 121.951 25.8926 121.951 26.6726C121.951 27.5726 121.741 28.3526 121.321 29.0126C120.913 29.6606 120.325 30.1586 119.557 30.5066C118.789 30.8546 117.859 31.0286 116.767 31.0286H112.501ZM116.821 28.2746C117.385 28.2746 117.799 28.1546 118.063 27.9146C118.339 27.6626 118.477 27.3026 118.477 26.8346C118.477 26.5346 118.405 26.2886 118.261 26.0966C118.129 25.8926 117.943 25.7366 117.703 25.6286C117.463 25.5206 117.193 25.4666 116.893 25.4666H115.975V28.2746H116.821ZM122.851 31.0286V18.1766H126.343V31.0286H122.851Z" fill="#1C6BE8"/>
<path d="M104.854 18.1766C106.09 18.1766 107.086 18.3026 107.842 18.5546C108.598 18.7946 109.15 19.1546 109.498 19.6346C109.846 20.1026 110.02 20.6846 110.02 21.3806C110.02 21.9446 109.918 22.4246 109.714 22.8206C109.51 23.2046 109.252 23.5106 108.94 23.7386C108.64 23.9666 108.328 24.1226 108.004 24.2066V24.2966C108.352 24.3806 108.7 24.5246 109.048 24.7286C109.396 24.9326 109.684 25.2386 109.912 25.6466C110.152 26.0426 110.272 26.5826 110.272 27.2666C110.272 28.0466 110.074 28.7186 109.678 29.2826C109.282 29.8466 108.718 30.2786 107.986 30.5786C107.254 30.8786 106.384 31.0286 105.376 31.0286H100.372V18.1766H104.854ZM104.89 23.1086C105.466 23.1086 105.868 22.9886 106.096 22.7486C106.336 22.5086 106.456 22.2206 106.456 21.8846C106.456 21.5366 106.324 21.2726 106.06 21.0926C105.796 20.9006 105.382 20.8046 104.818 20.8046H103.846V23.1086H104.89ZM103.846 25.6466V28.3466H105.07C105.67 28.3466 106.09 28.2206 106.33 27.9686C106.57 27.7046 106.69 27.3746 106.69 26.9786C106.69 26.7506 106.636 26.5346 106.528 26.3306C106.432 26.1266 106.258 25.9646 106.006 25.8446C105.766 25.7126 105.43 25.6466 104.998 25.6466H103.846Z" fill="#1C6BE8"/>
<path d="M99.0535 31.0286H95.1295L91.3135 24.5126V31.0286H87.8215V18.1766H91.3135V24.4046L94.9855 18.1766H98.8015L94.8415 24.3146L99.0535 31.0286Z" fill="#1C6BE8"/>
<path d="M81.8561 20.8405C81.4481 20.8405 81.0821 20.9306 80.7581 21.1106C80.4341 21.2786 80.1581 21.5306 79.9301 21.8666C79.7021 22.1905 79.5281 22.5865 79.4081 23.0546C79.2881 23.5226 79.2281 24.0566 79.2281 24.6566C79.2281 25.4606 79.3301 26.1386 79.5341 26.6906C79.7381 27.2426 80.0501 27.6626 80.4701 27.9506C80.8901 28.2266 81.4181 28.3646 82.0541 28.3646C82.6181 28.3646 83.1641 28.2866 83.6921 28.1306C84.2321 27.9746 84.7721 27.7826 85.3121 27.5546V30.4886C84.7481 30.7406 84.1661 30.9206 83.5661 31.0286C82.9781 31.1486 82.3481 31.2086 81.6761 31.2086C80.2841 31.2086 79.1441 30.9326 78.2561 30.3806C77.3681 29.8286 76.7141 29.0606 76.2941 28.0766C75.8741 27.0806 75.6641 25.9346 75.6641 24.6386C75.6641 23.6666 75.7961 22.7786 76.0601 21.9746C76.3361 21.1586 76.7381 20.4566 77.2661 19.8686C77.7941 19.2686 78.4421 18.8065 79.2101 18.4825C79.9901 18.1586 80.8841 17.9966 81.8921 17.9966C82.5161 17.9966 83.1701 18.0686 83.8541 18.2126C84.5381 18.3566 85.2101 18.5846 85.8701 18.8966L84.8081 21.6326C84.3401 21.4046 83.8661 21.2186 83.3861 21.0746C82.9061 20.9186 82.3961 20.8405 81.8561 20.8405Z" fill="#1C6BE8"/>
<path d="M73.8123 24.5846C73.8123 25.5806 73.6923 26.4866 73.4523 27.3026C73.2123 28.1066 72.8403 28.8026 72.3363 29.3906C71.8323 29.9786 71.1843 30.4286 70.3923 30.7406C69.6123 31.0526 68.6703 31.2086 67.5663 31.2086C66.4863 31.2086 65.5503 31.0526 64.7583 30.7406C63.9783 30.4286 63.3303 29.9786 62.8143 29.3906C62.3103 28.8026 61.9323 28.1066 61.6803 27.3026C61.4403 26.4866 61.3203 25.5746 61.3203 24.5666C61.3203 23.2346 61.5423 22.0766 61.9863 21.0926C62.4303 20.0966 63.1143 19.3286 64.0383 18.7886C64.9623 18.2486 66.1443 17.9786 67.5843 17.9786C69.0483 17.9786 70.2363 18.2546 71.1483 18.8066C72.0723 19.3466 72.7443 20.1146 73.1643 21.1106C73.5963 22.0946 73.8123 23.2526 73.8123 24.5846ZM64.9743 24.5846C64.9743 25.3526 65.0583 26.0186 65.2263 26.5826C65.4063 27.1346 65.6883 27.5606 66.0723 27.8606C66.4563 28.1606 66.9543 28.3106 67.5663 28.3106C68.2023 28.3106 68.7063 28.1606 69.0783 27.8606C69.4623 27.5606 69.7383 27.1346 69.9063 26.5826C70.0743 26.0186 70.1583 25.3526 70.1583 24.5846C70.1583 23.4206 69.9663 22.5026 69.5823 21.8306C69.1983 21.1586 68.5323 20.8226 67.5843 20.8226C66.9603 20.8226 66.4563 20.9786 66.0723 21.2906C65.6883 21.5906 65.4063 22.0226 65.2263 22.5866C65.0583 23.1386 64.9743 23.8046 64.9743 24.5846Z" fill="#1C6BE8"/>
<path d="M49.984 31.0286L47.356 21.7766H47.284C47.308 22.0166 47.332 22.3406 47.356 22.7486C47.38 23.1566 47.404 23.6006 47.428 24.0806C47.452 24.5486 47.464 25.0046 47.464 25.4486V31.0286H44.386V18.1766H49.012L51.694 27.3026H51.766L54.394 18.1766H59.02V31.0286H55.834V25.3946C55.834 24.9866 55.84 24.5546 55.852 24.0986C55.864 23.6306 55.882 23.1926 55.906 22.7846C55.93 22.3646 55.948 22.0346 55.96 21.7946H55.888L53.296 31.0286H49.984Z" fill="#1C6BE8"/>
<path d="M122.474 5.18255C122.474 6.03455 122.21 6.71855 121.682 7.23455C121.166 7.73855 120.422 8.07455 119.45 8.24255V8.31455C120.638 8.41055 121.52 8.72855 122.096 9.26855C122.672 9.80855 122.96 10.5046 122.96 11.3566C122.96 12.1006 122.75 12.7666 122.33 13.3546C121.922 13.9306 121.316 14.3866 120.512 14.7226C119.72 15.0466 118.736 15.2086 117.56 15.2086C116.444 15.2086 115.484 15.1426 114.68 15.0106C113.876 14.8786 113.204 14.7106 112.664 14.5066V11.5186C113.024 11.6986 113.438 11.8546 113.906 11.9866C114.374 12.1066 114.848 12.2026 115.328 12.2746C115.82 12.3346 116.264 12.3646 116.66 12.3646C117.656 12.3646 118.358 12.2626 118.766 12.0586C119.186 11.8426 119.396 11.5006 119.396 11.0326C119.396 10.6006 119.144 10.2766 118.64 10.0606C118.148 9.84455 117.416 9.73655 116.444 9.73655H114.932V6.92855H116.282C117.026 6.92855 117.59 6.88655 117.974 6.80255C118.358 6.71855 118.622 6.59855 118.766 6.44255C118.91 6.27455 118.982 6.06455 118.982 5.81255C118.982 5.50055 118.838 5.26055 118.55 5.09255C118.274 4.92455 117.8 4.84055 117.128 4.84055C116.6 4.84055 116.072 4.91255 115.544 5.05655C115.016 5.20055 114.518 5.42855 114.05 5.74055L112.592 3.34655C113.084 3.03455 113.576 2.78255 114.068 2.59055C114.56 2.38655 115.106 2.23655 115.706 2.14055C116.306 2.04455 117.002 1.99655 117.794 1.99655C118.766 1.99655 119.6 2.13455 120.296 2.41055C120.992 2.68655 121.526 3.06455 121.898 3.54455C122.282 4.01255 122.474 4.55855 122.474 5.18255Z" fill="#1C6BE8"/>
<path d="M97.9993 2.17655H101.239V8.06255C101.239 8.32655 101.233 8.60255 101.221 8.89055C101.221 9.17855 101.215 9.46655 101.203 9.75455C101.191 10.0306 101.173 10.2946 101.149 10.5466C101.137 10.7986 101.119 11.0206 101.095 11.2126H101.167L106.459 2.17655H110.437V15.0286H107.197V9.46655C107.197 9.22655 107.197 8.95655 107.197 8.65655C107.209 8.34455 107.221 8.02655 107.233 7.70255C107.257 7.37855 107.275 7.07255 107.287 6.78455C107.311 6.48455 107.335 6.22055 107.359 5.99255H107.287L101.995 15.0286H97.9993V2.17655Z" fill="#1C6BE8"/>
<path d="M95.2323 15.0286H91.7403V5.02055H89.2923C89.2443 5.50055 89.1843 6.04055 89.1123 6.64055C89.0523 7.24055 88.9803 7.85855 88.8963 8.49455C88.8123 9.11855 88.7223 9.72455 88.6263 10.3126C88.5303 10.8886 88.4343 11.3926 88.3383 11.8246C88.1824 12.5326 87.9543 13.1386 87.6543 13.6426C87.3663 14.1466 86.9643 14.5366 86.4483 14.8126C85.9443 15.0766 85.2903 15.2086 84.4863 15.2086C84.2223 15.2086 83.9763 15.1906 83.7483 15.1546C83.5323 15.1186 83.3223 15.0706 83.1183 15.0106V12.3286C83.2863 12.3766 83.4363 12.4186 83.5683 12.4546C83.7003 12.4906 83.8383 12.5086 83.9823 12.5086C84.1744 12.5086 84.3423 12.4546 84.4863 12.3466C84.6423 12.2266 84.7863 11.9806 84.9183 11.6086C85.0503 11.2366 85.1823 10.6606 85.3143 9.88055C85.3623 9.62855 85.4223 9.25055 85.4943 8.74655C85.5783 8.24255 85.6623 7.64855 85.7463 6.96455C85.8424 6.28055 85.9443 5.53055 86.0523 4.71455C86.1604 3.89855 86.2623 3.05255 86.3583 2.17655H95.2323V15.0286Z" fill="#1C6BE8"/>
<path d="M79.1118 15.0286L78.4818 12.6166H74.3058L73.6578 15.0286H69.8418L74.0358 2.12255H78.6618L82.9098 15.0286H79.1118ZM77.2038 7.66655C77.1438 7.43855 77.0598 7.11455 76.9518 6.69455C76.8438 6.26255 76.7358 5.81855 76.6278 5.36255C76.5198 4.90655 76.4358 4.53455 76.3758 4.24655C76.3278 4.53455 76.2498 4.89455 76.1418 5.32655C76.0458 5.75855 75.9438 6.18455 75.8358 6.60455C75.7398 7.02455 75.6558 7.37855 75.5838 7.66655L75.0258 9.77255H77.7618L77.2038 7.66655Z" fill="#1C6BE8"/>
<path d="M68.4625 15.0286H64.9705V9.79055H60.9385V15.0286H57.4465V2.17655H60.9385V6.94655H64.9705V2.17655H68.4625V15.0286Z" fill="#1C6BE8"/>
<path d="M52.27 15.0286L51.64 12.6166H47.464L46.816 15.0286H43L47.194 2.12255H51.82L56.068 15.0286H52.27ZM50.362 7.66655C50.302 7.43855 50.218 7.11455 50.11 6.69455C50.002 6.26255 49.894 5.81855 49.786 5.36255C49.678 4.90655 49.594 4.53455 49.534 4.24655C49.486 4.53455 49.408 4.89455 49.3 5.32655C49.204 5.75855 49.102 6.18455 48.994 6.60455C48.898 7.02455 48.814 7.37855 48.742 7.66655L48.184 9.77255H50.92L50.362 7.66655Z" fill="#1C6BE8"/>
<path d="M8 1.01584H25C28.8666 1.01584 32 4.14823 32 8.01096V26.0002C31.9999 29.8629 28.8665 32.9953 25 32.9953H8C4.13348 32.9953 1.00008 29.8629 1 26.0002V8.01096C1.00001 4.14823 4.13344 1.01584 8 1.01584Z" stroke="#1C6BE8" stroke-width="2"/>
<path d="M17.3203 25.9265C20.5679 25.9265 23.2 28.5571 23.2002 31.8015V33.3728C23.2002 33.4374 23.1476 33.49 23.082 33.49H8.47754C4.23693 33.4897 0.784867 30.128 0.639648 25.9265H17.3203Z" stroke="#1C6BE8"/>
<path d="M15.8086 8.06393C12.561 8.06393 9.92891 5.43331 9.92871 2.18893V0.617645C9.92871 0.553017 9.98133 0.500458 10.0469 0.500458H24.6514C28.892 0.500706 32.344 3.86243 32.4893 8.06393H15.8086Z" stroke="#1C6BE8"/>
<rect x="19.5" y="13.5" width="8" height="8" rx="4" stroke="#1C6BE8"/>
<rect x="22" y="15" width="4" height="4" rx="2" fill="#1C6BE8"/>
</svg>
