<svg width="36" height="36" viewBox="0 0 36 36" fill="none" xmlns="http://www.w3.org/2000/svg">
<path d="M36 18C36 27.9411 27.9411 36 18 36C8.05887 36 0 27.9411 0 18C0 8.05887 8.05887 0 18 0C27.9411 0 36 8.05887 36 18Z" fill="#E9D9FC"/>
<path d="M10.125 14.3437C10.125 15.7417 8.99172 16.875 7.59375 16.875C6.19578 16.875 5.0625 15.7417 5.0625 14.3437C5.0625 12.9458 6.19578 11.8125 7.59375 11.8125C8.99172 11.8125 10.125 12.9458 10.125 14.3437Z" fill="#8C4FE8"/>
<path d="M30.9375 14.3437C30.9375 15.7417 29.8042 16.875 28.4062 16.875C27.0083 16.875 25.875 15.7417 25.875 14.3437C25.875 12.9458 27.0083 11.8125 28.4062 11.8125C29.8042 11.8125 30.9375 12.9458 30.9375 14.3437Z" fill="#8C4FE8"/>
<path d="M11 23H24.5" stroke="#8C4FE8" stroke-width="2" stroke-linecap="round"/>
</svg>
