<svg width="18" height="20" viewBox="0 0 18 20" fill="none" xmlns="http://www.w3.org/2000/svg">
<path d="M3.074 5.70509C3.80907 4.9676 4.68269 4.38271 5.6446 3.98405C6.60651 3.58538 7.63775 3.3808 8.679 3.38209C10.7818 3.38235 12.7984 4.21781 14.2854 5.70473C15.7723 7.19165 16.6077 9.20827 16.608 11.3111C16.6077 13.4148 15.7726 15.4325 14.286 16.921C12.7993 18.4095 10.7827 19.2472 8.679 19.2501C6.57509 19.2472 4.55834 18.4094 3.07168 16.9206C1.58502 15.4319 0.749998 13.414 0.75 11.3101" stroke="#1C6BE8" stroke-width="1.5" stroke-miterlimit="10" stroke-linecap="round"/>
<path d="M3.79923 0.750122L2.84923 4.60812C2.76491 4.9501 2.81968 5.31155 3.00152 5.61319C3.18337 5.91483 3.47744 6.13203 3.81923 6.21712L7.68823 7.16512" stroke="#1C6BE8" stroke-width="1.5" stroke-linecap="round" stroke-linejoin="round"/>
</svg>
