<svg width="127" height="34" viewBox="0 0 127 34" fill="none" xmlns="http://www.w3.org/2000/svg">
<path d="M112.501 31.0285V18.1765H115.975V22.7125H117.127C118.231 22.7125 119.137 22.8805 119.845 23.2165C120.553 23.5525 121.081 24.0205 121.429 24.6205C121.777 25.2085 121.951 25.8925 121.951 26.6725C121.951 27.5725 121.741 28.3525 121.321 29.0125C120.913 29.6605 120.325 30.1585 119.557 30.5065C118.789 30.8545 117.859 31.0285 116.767 31.0285H112.501ZM116.821 28.2745C117.385 28.2745 117.799 28.1545 118.063 27.9145C118.339 27.6625 118.477 27.3025 118.477 26.8345C118.477 26.5345 118.405 26.2885 118.261 26.0965C118.129 25.8925 117.943 25.7365 117.703 25.6285C117.463 25.5205 117.193 25.4665 116.893 25.4665H115.975V28.2745H116.821ZM122.851 31.0285V18.1765H126.343V31.0285H122.851Z" fill="#1C6BE8"/>
<path d="M104.854 18.1765C106.09 18.1765 107.086 18.3025 107.842 18.5545C108.598 18.7945 109.15 19.1545 109.498 19.6345C109.846 20.1025 110.02 20.6845 110.02 21.3805C110.02 21.9445 109.918 22.4245 109.714 22.8205C109.51 23.2045 109.252 23.5105 108.94 23.7385C108.64 23.9665 108.328 24.1225 108.004 24.2065V24.2965C108.352 24.3805 108.7 24.5245 109.048 24.7285C109.396 24.9325 109.684 25.2385 109.912 25.6465C110.152 26.0425 110.272 26.5825 110.272 27.2665C110.272 28.0465 110.074 28.7185 109.678 29.2825C109.282 29.8465 108.718 30.2785 107.986 30.5785C107.254 30.8785 106.384 31.0285 105.376 31.0285H100.372V18.1765H104.854ZM104.89 23.1085C105.466 23.1085 105.868 22.9885 106.096 22.7485C106.336 22.5085 106.456 22.2205 106.456 21.8845C106.456 21.5365 106.324 21.2725 106.06 21.0925C105.796 20.9005 105.382 20.8045 104.818 20.8045H103.846V23.1085H104.89ZM103.846 25.6465V28.3465H105.07C105.67 28.3465 106.09 28.2205 106.33 27.9685C106.57 27.7045 106.69 27.3745 106.69 26.9785C106.69 26.7505 106.636 26.5345 106.528 26.3305C106.432 26.1265 106.258 25.9645 106.006 25.8445C105.766 25.7125 105.43 25.6465 104.998 25.6465H103.846Z" fill="#1C6BE8"/>
<path d="M99.0535 31.0285H95.1295L91.3135 24.5125V31.0285H87.8215V18.1765H91.3135V24.4045L94.9855 18.1765H98.8015L94.8415 24.3145L99.0535 31.0285Z" fill="#1C6BE8"/>
<path d="M81.8561 20.8405C81.4481 20.8405 81.0821 20.9305 80.7581 21.1105C80.4341 21.2785 80.1581 21.5305 79.9301 21.8665C79.7021 22.1905 79.5281 22.5865 79.4081 23.0545C79.2881 23.5225 79.2281 24.0565 79.2281 24.6565C79.2281 25.4605 79.3301 26.1385 79.5341 26.6905C79.7381 27.2425 80.0501 27.6625 80.4701 27.9505C80.8901 28.2265 81.4181 28.3645 82.0541 28.3645C82.6181 28.3645 83.1641 28.2865 83.6921 28.1305C84.2321 27.9745 84.7721 27.7825 85.3121 27.5545V30.4885C84.7481 30.7405 84.1661 30.9205 83.5661 31.0285C82.9781 31.1485 82.3481 31.2085 81.6761 31.2085C80.2841 31.2085 79.1441 30.9325 78.2561 30.3805C77.3681 29.8285 76.7141 29.0605 76.2941 28.0765C75.8741 27.0805 75.6641 25.9345 75.6641 24.6385C75.6641 23.6665 75.7961 22.7785 76.0601 21.9745C76.3361 21.1585 76.7381 20.4565 77.2661 19.8685C77.7941 19.2685 78.4421 18.8065 79.2101 18.4825C79.9901 18.1585 80.8841 17.9965 81.8921 17.9965C82.5161 17.9965 83.1701 18.0685 83.8541 18.2125C84.5381 18.3565 85.2101 18.5845 85.8701 18.8965L84.8081 21.6325C84.3401 21.4045 83.8661 21.2185 83.3861 21.0745C82.9061 20.9185 82.3961 20.8405 81.8561 20.8405Z" fill="#1C6BE8"/>
<path d="M73.8123 24.5845C73.8123 25.5805 73.6923 26.4865 73.4523 27.3025C73.2123 28.1065 72.8403 28.8025 72.3363 29.3905C71.8323 29.9785 71.1843 30.4285 70.3923 30.7405C69.6123 31.0525 68.6703 31.2085 67.5663 31.2085C66.4863 31.2085 65.5503 31.0525 64.7583 30.7405C63.9783 30.4285 63.3303 29.9785 62.8143 29.3905C62.3103 28.8025 61.9323 28.1065 61.6803 27.3025C61.4403 26.4865 61.3203 25.5745 61.3203 24.5665C61.3203 23.2345 61.5423 22.0765 61.9863 21.0925C62.4303 20.0965 63.1143 19.3285 64.0383 18.7885C64.9623 18.2485 66.1443 17.9785 67.5843 17.9785C69.0483 17.9785 70.2363 18.2545 71.1483 18.8065C72.0723 19.3465 72.7443 20.1145 73.1643 21.1105C73.5963 22.0945 73.8123 23.2525 73.8123 24.5845ZM64.9743 24.5845C64.9743 25.3525 65.0583 26.0185 65.2263 26.5825C65.4063 27.1345 65.6883 27.5605 66.0723 27.8605C66.4563 28.1605 66.9543 28.3105 67.5663 28.3105C68.2023 28.3105 68.7063 28.1605 69.0783 27.8605C69.4623 27.5605 69.7383 27.1345 69.9063 26.5825C70.0743 26.0185 70.1583 25.3525 70.1583 24.5845C70.1583 23.4205 69.9663 22.5025 69.5823 21.8305C69.1983 21.1585 68.5323 20.8225 67.5843 20.8225C66.9603 20.8225 66.4563 20.9785 66.0723 21.2905C65.6883 21.5905 65.4063 22.0225 65.2263 22.5865C65.0583 23.1385 64.9743 23.8045 64.9743 24.5845Z" fill="#1C6BE8"/>
<path d="M49.984 31.0285L47.356 21.7765H47.284C47.308 22.0165 47.332 22.3405 47.356 22.7485C47.38 23.1565 47.404 23.6005 47.428 24.0805C47.452 24.5485 47.464 25.0045 47.464 25.4485V31.0285H44.386V18.1765H49.012L51.694 27.3025H51.766L54.394 18.1765H59.02V31.0285H55.834V25.3945C55.834 24.9865 55.84 24.5545 55.852 24.0985C55.864 23.6305 55.882 23.1925 55.906 22.7845C55.93 22.3645 55.948 22.0345 55.96 21.7945H55.888L53.296 31.0285H49.984Z" fill="#1C6BE8"/>
<path d="M122.474 5.18246C122.474 6.03446 122.21 6.71846 121.682 7.23446C121.166 7.73846 120.422 8.07446 119.45 8.24246V8.31446C120.638 8.41046 121.52 8.72846 122.096 9.26846C122.672 9.80846 122.96 10.5045 122.96 11.3565C122.96 12.1005 122.75 12.7665 122.33 13.3545C121.922 13.9305 121.316 14.3865 120.512 14.7225C119.72 15.0465 118.736 15.2085 117.56 15.2085C116.444 15.2085 115.484 15.1425 114.68 15.0105C113.876 14.8785 113.204 14.7105 112.664 14.5065V11.5185C113.024 11.6985 113.438 11.8545 113.906 11.9865C114.374 12.1065 114.848 12.2025 115.328 12.2745C115.82 12.3345 116.264 12.3645 116.66 12.3645C117.656 12.3645 118.358 12.2625 118.766 12.0585C119.186 11.8425 119.396 11.5005 119.396 11.0325C119.396 10.6005 119.144 10.2765 118.64 10.0605C118.148 9.84446 117.416 9.73646 116.444 9.73646H114.932V6.92846H116.282C117.026 6.92846 117.59 6.88646 117.974 6.80246C118.358 6.71846 118.622 6.59846 118.766 6.44246C118.91 6.27446 118.982 6.06446 118.982 5.81246C118.982 5.50046 118.838 5.26046 118.55 5.09246C118.274 4.92446 117.8 4.84046 117.128 4.84046C116.6 4.84046 116.072 4.91246 115.544 5.05646C115.016 5.20046 114.518 5.42846 114.05 5.74046L112.592 3.34646C113.084 3.03446 113.576 2.78246 114.068 2.59046C114.56 2.38646 115.106 2.23646 115.706 2.14046C116.306 2.04446 117.002 1.99646 117.794 1.99646C118.766 1.99646 119.6 2.13446 120.296 2.41046C120.992 2.68646 121.526 3.06446 121.898 3.54446C122.282 4.01246 122.474 4.55846 122.474 5.18246Z" fill="#1C6BE8"/>
<path d="M97.9993 2.17646H101.239V8.06246C101.239 8.32646 101.233 8.60246 101.221 8.89046C101.221 9.17846 101.215 9.46646 101.203 9.75446C101.191 10.0305 101.173 10.2945 101.149 10.5465C101.137 10.7985 101.119 11.0205 101.095 11.2125H101.167L106.459 2.17646H110.437V15.0285H107.197V9.46646C107.197 9.22646 107.197 8.95646 107.197 8.65646C107.209 8.34446 107.221 8.02646 107.233 7.70246C107.257 7.37846 107.275 7.07246 107.287 6.78446C107.311 6.48446 107.335 6.22046 107.359 5.99246H107.287L101.995 15.0285H97.9993V2.17646Z" fill="#1C6BE8"/>
<path d="M95.2323 15.0285H91.7403V5.02046H89.2923C89.2443 5.50046 89.1843 6.04046 89.1123 6.64046C89.0523 7.24046 88.9803 7.85846 88.8963 8.49446C88.8123 9.11846 88.7223 9.72446 88.6263 10.3125C88.5303 10.8885 88.4343 11.3925 88.3383 11.8245C88.1824 12.5325 87.9543 13.1385 87.6543 13.6425C87.3663 14.1465 86.9643 14.5365 86.4483 14.8125C85.9443 15.0765 85.2903 15.2085 84.4863 15.2085C84.2223 15.2085 83.9763 15.1905 83.7483 15.1545C83.5323 15.1185 83.3223 15.0705 83.1183 15.0105V12.3285C83.2863 12.3765 83.4363 12.4185 83.5683 12.4545C83.7003 12.4905 83.8383 12.5085 83.9823 12.5085C84.1744 12.5085 84.3423 12.4545 84.4863 12.3465C84.6423 12.2265 84.7863 11.9805 84.9183 11.6085C85.0503 11.2365 85.1823 10.6605 85.3143 9.88046C85.3623 9.62846 85.4223 9.25046 85.4943 8.74646C85.5783 8.24246 85.6623 7.64846 85.7463 6.96446C85.8424 6.28046 85.9443 5.53046 86.0523 4.71446C86.1604 3.89846 86.2623 3.05246 86.3583 2.17646H95.2323V15.0285Z" fill="#1C6BE8"/>
<path d="M79.1118 15.0285L78.4818 12.6165H74.3058L73.6578 15.0285H69.8418L74.0358 2.12246H78.6618L82.9098 15.0285H79.1118ZM77.2038 7.66646C77.1438 7.43846 77.0598 7.11446 76.9518 6.69446C76.8438 6.26246 76.7358 5.81846 76.6278 5.36246C76.5198 4.90646 76.4358 4.53446 76.3758 4.24646C76.3278 4.53446 76.2498 4.89446 76.1418 5.32646C76.0458 5.75846 75.9438 6.18446 75.8358 6.60446C75.7398 7.02446 75.6558 7.37846 75.5838 7.66646L75.0258 9.77246H77.7618L77.2038 7.66646Z" fill="#1C6BE8"/>
<path d="M68.4625 15.0285H64.9705V9.79046H60.9385V15.0285H57.4465V2.17646H60.9385V6.94646H64.9705V2.17646H68.4625V15.0285Z" fill="#1C6BE8"/>
<path d="M52.27 15.0285L51.64 12.6165H47.464L46.816 15.0285H43L47.194 2.12246H51.82L56.068 15.0285H52.27ZM50.362 7.66646C50.302 7.43846 50.218 7.11446 50.11 6.69446C50.002 6.26246 49.894 5.81846 49.786 5.36246C49.678 4.90646 49.594 4.53446 49.534 4.24646C49.486 4.53446 49.408 4.89446 49.3 5.32646C49.204 5.75846 49.102 6.18446 48.994 6.60446C48.898 7.02446 48.814 7.37846 48.742 7.66646L48.184 9.77246H50.92L50.362 7.66646Z" fill="#1C6BE8"/>
<path d="M8 1.01587H25C28.8666 1.01587 32 4.14826 32 8.01099V26.0002C31.9999 29.8629 28.8665 32.9954 25 32.9954H8C4.13348 32.9954 1.00008 29.8629 1 26.0002V8.01099C1.00001 4.14826 4.13344 1.01587 8 1.01587Z" stroke="#1C6BE8" stroke-width="2"/>
<path d="M17.3203 25.9265C20.5679 25.9265 23.2 28.5571 23.2002 31.8015V33.3728C23.2002 33.4374 23.1476 33.49 23.082 33.49H8.47754C4.23693 33.4897 0.784867 30.128 0.639648 25.9265H17.3203Z" stroke="#1C6BE8"/>
<path d="M15.8086 8.06396C12.561 8.06396 9.92891 5.43334 9.92871 2.18896V0.617676C9.92871 0.553048 9.98133 0.500488 10.0469 0.500488H24.6514C28.892 0.500737 32.344 3.86246 32.4893 8.06396H15.8086Z" stroke="#1C6BE8"/>
</svg>
