<svg width="36" height="36" viewBox="0 0 36 36" fill="none" xmlns="http://www.w3.org/2000/svg">
<path d="M36 18C36 27.9411 27.9411 36 18 36C8.05887 36 0 27.9411 0 18C0 8.05887 8.05887 0 18 0C27.9411 0 36 8.05887 36 18Z" fill="#FFE4E7"/>
<path d="M10.125 14.3437C10.125 15.7417 8.99172 16.875 7.59375 16.875C6.19578 16.875 5.0625 15.7417 5.0625 14.3437C5.0625 12.9458 6.19578 11.8125 7.59375 11.8125C8.99172 11.8125 10.125 12.9458 10.125 14.3437Z" fill="#BF5552"/>
<path d="M30.9375 14.3437C30.9375 15.7417 29.8042 16.875 28.4062 16.875C27.0083 16.875 25.875 15.7417 25.875 14.3437C25.875 12.9458 27.0083 11.8125 28.4062 11.8125C29.8042 11.8125 30.9375 12.9458 30.9375 14.3437Z" fill="#BF5552"/>
<path d="M10.6875 26.1562C10.3768 26.1562 10.123 25.9041 10.1437 25.5942C10.2023 24.7154 10.3981 23.851 10.7244 23.035C11.1202 22.0454 11.7003 21.1463 12.4315 20.3889C13.1628 19.6315 14.0309 19.0307 14.9864 18.6209C15.9418 18.211 16.9658 18 18 18C19.0342 18 20.0582 18.211 21.0136 18.6209C21.9691 19.0307 22.8372 19.6315 23.5685 20.3889C24.2997 21.1463 24.8798 22.0454 25.2756 23.035C25.6019 23.851 25.7977 24.7154 25.8563 25.5942C25.877 25.9041 25.6232 26.1562 25.3125 26.1562H10.6875Z" fill="#BF5552"/>
</svg>
